<svg xmlns="http://www.w3.org/2000/svg" xmlns:xlink="http://www.w3.org/1999/xlink" width="500" zoomAndPan="magnify" viewBox="0 0 375 374.999991" height="500" preserveAspectRatio="xMidYMid meet" version="1.0"><defs><g/><clipPath id="d0a249a870"><path d="M 183 206 L 188 206 L 188 209.730469 L 183 209.730469 Z M 183 206 " clip-rule="nonzero"/></clipPath><clipPath id="0ecfea41fe"><path d="M 116.375 87.480469 L 258.875 87.480469 L 258.875 168 L 116.375 168 Z M 116.375 87.480469 " clip-rule="nonzero"/></clipPath><clipPath id="6eaaa69957"><path d="M 136 142 L 239 142 L 239 209.730469 L 136 209.730469 Z M 136 142 " clip-rule="nonzero"/></clipPath></defs><g clip-path="url(#d0a249a870)"><path fill="#050a30" d="M 183.164062 206.402344 C 184.792969 206.5625 185.382812 209.417969 187.585938 208.109375 C 186.933594 209.671875 186.109375 210.308594 184.847656 208.628906 C 184.285156 207.882812 183.722656 207.140625 183.160156 206.402344 Z M 183.164062 206.402344 " fill-opacity="1" fill-rule="evenodd"/></g><path fill="#050a30" d="M 127.6875 115.238281 C 127.660156 115.847656 127.246094 115.976562 126.75 115.96875 C 126.378906 115.960938 125.972656 115.921875 125.898438 115.460938 C 125.808594 114.894531 126.191406 114.59375 126.664062 114.507812 C 127.199219 114.40625 127.5 114.777344 127.6875 115.238281 Z M 127.6875 115.238281 " fill-opacity="1" fill-rule="evenodd"/><path fill="#050a30" d="M 124.230469 116.398438 C 123.796875 116.417969 123.527344 116.261719 123.628906 115.945312 C 123.6875 115.761719 124.015625 115.617188 124.25 115.546875 C 124.351562 115.515625 124.523438 115.71875 124.664062 115.8125 C 124.507812 116.027344 124.347656 116.238281 124.230469 116.398438 Z M 124.230469 116.398438 " fill-opacity="1" fill-rule="evenodd"/><path fill="#f4f6fc" d="M 186.308594 189.867188 C 187.695312 191.523438 188.992188 192.949219 190.109375 194.496094 C 190.40625 194.90625 186.519531 198.835938 185.996094 198.75 C 185.492188 198.667969 182.167969 194.671875 182.410156 194.371094 C 183.617188 192.882812 184.910156 191.464844 186.308594 189.867188 Z M 186.308594 189.867188 " fill-opacity="1" fill-rule="evenodd"/><g clip-path="url(#0ecfea41fe)"><path fill="#050a30" d="M 121.257812 117.132812 C 121.332031 117.210938 121.40625 117.292969 121.476562 117.371094 C 121.480469 117.371094 121.484375 117.371094 121.484375 117.371094 C 121.4375 117.265625 121.355469 117.1875 121.257812 117.132812 Z M 116.375 115.394531 C 116.453125 115.351562 116.535156 115.304688 116.621094 115.261719 C 117.460938 114.488281 118.433594 114.039062 119.53125 113.890625 C 120.527344 113.457031 121.636719 112.988281 122.761719 112.523438 C 122.816406 112.496094 122.871094 112.472656 122.929688 112.453125 C 126.976562 110.78125 131.1875 109.167969 131.1875 109.167969 L 131.277344 109.238281 C 149.324219 102.160156 167.378906 95.105469 185.414062 88.015625 C 187.070312 87.363281 188.539062 87.355469 190.195312 88.019531 C 197.617188 90.996094 205.082031 93.863281 212.523438 96.792969 C 227.398438 102.660156 242.269531 108.542969 257.140625 114.417969 C 257.796875 114.664062 258.578125 114.703125 258.875 115.507812 C 258.097656 115.894531 257.339844 116.332031 256.539062 116.660156 C 246.847656 120.636719 249.050781 117.921875 248.710938 128.097656 C 248.644531 130.035156 249.070312 131.15625 251.078125 132.078125 C 256.003906 134.34375 256.859375 140.078125 253.121094 143.902344 C 252.964844 144.058594 252.808594 144.214844 252.652344 144.371094 C 250.050781 145.347656 250.914062 147.417969 251.394531 149.082031 C 252.957031 154.476562 253.328125 159.980469 253.402344 165.550781 C 253.425781 167.339844 252.683594 167.773438 251.171875 167.765625 C 248.53125 167.757812 245.890625 167.710938 243.253906 167.78125 C 241.410156 167.832031 240.839844 167.007812 241.042969 165.28125 C 241.710938 159.679688 241.710938 153.988281 243.355469 148.523438 C 243.921875 146.632812 243.691406 145.359375 241.960938 143.882812 C 238.023438 140.523438 239.183594 134.507812 243.894531 132.328125 C 244.570312 132.015625 245.386719 131.957031 245.863281 131.28125 C 245.855469 131.28125 245.847656 131.28125 245.84375 131.285156 C 245.882812 128.652344 245.789062 126.007812 246.003906 123.394531 C 246.210938 120.839844 245.179688 121.03125 243.375 121.765625 C 237.964844 123.972656 232.503906 126.054688 227.070312 128.210938 C 226.285156 128.519531 225.304688 128.582031 224.960938 129.585938 C 227.117188 133.027344 228.113281 136.882812 228.960938 140.796875 C 229.261719 142.179688 228.851562 143.167969 227.742188 144.101562 C 216.757812 153.3125 204.320312 158.847656 189.808594 158.953125 C 177.097656 159.046875 165.546875 154.972656 155.109375 148.03125 C 144.96875 141.285156 144.945312 144.363281 149.945312 131.199219 C 150.628906 129.398438 150.421875 128.855469 148.632812 128.167969 C 140.535156 125.0625 132.507812 121.773438 124.449219 118.550781 C 123.34375 118.472656 122.339844 118.136719 121.496094 117.394531 C 120.371094 117.339844 119.398438 116.878906 118.480469 116.28125 C 117.96875 116.144531 117.457031 116.007812 116.945312 115.875 C 116.757812 115.75 116.566406 115.625 116.378906 115.5 C 116.410156 115.460938 116.445312 115.429688 116.480469 115.394531 Z M 116.375 115.394531 " fill-opacity="1" fill-rule="evenodd"/></g><path fill="#5cb6f9" d="M 222.824219 175.511719 C 219.277344 161.074219 198.761719 161.019531 195.199219 175.511719 L 196.71875 175.511719 C 196.722656 175.519531 196.722656 175.53125 196.722656 175.542969 L 200.980469 175.542969 C 200.980469 175.542969 200.980469 175.53125 200.984375 175.511719 Z M 222.824219 175.511719 " fill-opacity="1" fill-rule="evenodd"/><path fill="#5cb6f9" d="M 175.976562 175.511719 C 172.433594 161.074219 151.914062 161.019531 148.355469 175.511719 L 149.875 175.511719 C 149.875 175.519531 149.875 175.53125 149.878906 175.542969 L 154.136719 175.542969 C 154.136719 175.542969 154.136719 175.53125 154.140625 175.511719 Z M 175.976562 175.511719 " fill-opacity="1" fill-rule="evenodd"/><g clip-path="url(#6eaaa69957)"><path fill="#050a30" d="M 168.070312 182.910156 C 169.234375 181.582031 170.453125 182.066406 171.679688 181.976562 C 173.085938 181.867188 174.503906 181.949219 175.9375 181.949219 C 175.222656 187.496094 170.675781 191.894531 164.9375 192.769531 C 159.167969 194.589844 151.132812 190.589844 148.917969 183.699219 C 148.714844 183.078125 148.1875 181.945312 149.496094 182.007812 C 151.710938 182.113281 154.003906 181.304688 156.152344 182.441406 C 160.15625 187.148438 164.125 187.394531 168.070312 182.910156 Z M 148.355469 175.511719 C 151.914062 161.019531 172.433594 161.074219 175.980469 175.511719 L 154.140625 175.511719 C 154.140625 175.53125 154.136719 175.542969 154.136719 175.542969 L 149.878906 175.542969 C 149.878906 175.53125 149.878906 175.523438 149.878906 175.511719 Z M 177.242188 200.609375 C 179.023438 202.917969 181.09375 205.003906 183.042969 207.183594 C 183.839844 207.601562 184.292969 208.382812 184.871094 209.011719 C 185.871094 210.101562 186.703125 209.714844 187.585938 208.941406 C 190.027344 206.285156 192.574219 203.714844 194.867188 200.9375 C 196.304688 199.199219 197.5625 198.796875 199.828125 199.523438 C 210.695312 203.015625 222.648438 198.683594 228.621094 189.34375 C 234.542969 180.078125 233.390625 169.054688 225.480469 160.253906 C 224.367188 159.015625 224.1875 158.457031 225.773438 157.476562 C 229.515625 155.171875 233.046875 152.535156 236.382812 149.660156 C 238.679688 147.679688 239.050781 145.605469 237.539062 143.847656 C 236.070312 142.136719 233.71875 142.101562 231.515625 143.773438 C 229.027344 145.667969 226.625 147.683594 224.046875 149.449219 C 210.558594 158.714844 196.03125 164.601562 179.253906 162.457031 C 167.304688 160.933594 156.839844 156.027344 147.910156 147.910156 L 147.933594 147.933594 C 146.152344 147.015625 145.023438 145.371094 143.589844 144.0625 C 141.542969 142.1875 139.269531 142.007812 137.628906 143.621094 C 135.910156 145.316406 136.050781 147.304688 138.144531 149.527344 C 140.492188 152.019531 142.980469 154.402344 145.828125 156.28125 C 148.144531 157.8125 148.6875 158.671875 146.382812 161.035156 C 140.722656 166.832031 139.035156 174.105469 140.847656 181.894531 C 144.140625 196.023438 158.894531 203.988281 173.046875 199.429688 C 174.941406 198.824219 176.023438 199.03125 177.242188 200.609375 Z M 214.914062 182.910156 C 216.082031 181.582031 217.296875 182.066406 218.527344 181.976562 C 219.929688 181.867188 221.347656 181.949219 222.785156 181.949219 C 222.070312 187.496094 217.523438 191.894531 211.78125 192.769531 C 206.015625 194.589844 197.976562 190.589844 195.761719 183.699219 C 195.5625 183.078125 195.035156 181.945312 196.339844 182.007812 C 198.558594 182.113281 200.847656 181.304688 202.996094 182.441406 C 207.003906 187.148438 210.972656 187.394531 214.914062 182.910156 Z M 182.414062 194.371094 C 183.621094 192.882812 184.910156 191.46875 186.3125 189.867188 C 187.695312 191.523438 188.992188 192.949219 190.109375 194.496094 C 190.40625 194.90625 186.519531 198.835938 185.996094 198.75 C 185.496094 198.667969 182.167969 194.671875 182.414062 194.371094 Z M 195.203125 175.511719 C 198.761719 161.019531 219.28125 161.074219 222.824219 175.511719 L 200.988281 175.511719 C 200.984375 175.53125 200.984375 175.542969 200.984375 175.542969 L 196.726562 175.542969 C 196.726562 175.53125 196.722656 175.523438 196.722656 175.511719 Z M 195.203125 175.511719 " fill-opacity="1" fill-rule="evenodd"/></g><g fill="#050a30" fill-opacity="1"><g transform="translate(94.699217, 250.548147)"><g><path d="M 13.277344 -14.640625 C 13.679688 -14.71875 14.078125 -14.878906 14.398438 -15.078125 C 14.71875 -15.277344 15.117188 -15.597656 15.519531 -16.078125 C 15.917969 -16.558594 16.277344 -17.238281 16.597656 -18.199219 C 16.917969 -19.160156 17.160156 -20.320312 17.359375 -21.71875 C 17.359375 -21.917969 17.398438 -22.238281 17.398438 -22.636719 C 17.398438 -23.597656 17.160156 -24.4375 16.71875 -25.199219 C 16.277344 -25.957031 15.71875 -26.558594 15.078125 -27 C 14.398438 -27.4375 13.640625 -27.796875 12.757812 -28.078125 C 11.878906 -28.359375 11.039062 -28.558594 10.320312 -28.636719 C 9.558594 -28.71875 8.800781 -28.796875 8.078125 -28.796875 C 7.039062 -28.796875 5.917969 -28.476562 4.757812 -27.917969 C 3.601562 -27.359375 2.800781 -26.878906 2.398438 -26.558594 C 2 -26.199219 1.679688 -25.917969 1.441406 -25.679688 L 2.800781 -22.558594 L 3.878906 -23.039062 L 5.800781 -23.636719 L 8.320312 -23.839844 L 11.078125 -23.519531 C 11.160156 -23.519531 11.277344 -23.4375 11.480469 -23.359375 C 11.679688 -23.238281 11.878906 -23.039062 12.121094 -22.71875 C 12.320312 -22.398438 12.4375 -22 12.4375 -21.558594 C 12.4375 -20.71875 12.160156 -19.71875 11.679688 -18.558594 C 11.4375 -18 11 -17.519531 10.28125 -17.117188 L 10.238281 -17.117188 C 10.199219 -17.078125 10.160156 -17.078125 10.160156 -17.078125 C 9.757812 -16.917969 8.558594 -16.597656 6.558594 -16.199219 L 4.878906 -15.839844 L 3.640625 -15.238281 L 2.917969 -14.839844 L 3.320312 -13.238281 L 3.878906 -12.398438 L 9.558594 -12 L 10.320312 -11.757812 C 10.839844 -11.558594 11.359375 -11.160156 11.878906 -10.558594 C 12.398438 -9.960938 12.679688 -9.238281 12.679688 -8.441406 C 12.679688 -8.039062 12.640625 -7.757812 12.558594 -7.597656 C 12.4375 -6.917969 12.199219 -6.320312 11.839844 -5.839844 C 11.480469 -5.359375 11.121094 -5 10.757812 -4.757812 C 10.359375 -4.519531 9.960938 -4.359375 9.519531 -4.199219 C 9.078125 -4.039062 8.757812 -3.960938 8.597656 -3.960938 C 8.441406 -3.917969 8.28125 -3.917969 8.199219 -3.917969 L 5.878906 -4.121094 L 4.480469 -4.558594 L 2.917969 -4.960938 L 2.199219 -5.121094 C 2.078125 -5.121094 2 -5.078125 1.960938 -5.078125 C 1.800781 -4.960938 1.679688 -4.480469 1.558594 -3.679688 C 1.398438 -3.398438 1.359375 -2.71875 1.359375 -1.640625 L 1.359375 -1.359375 C 1.359375 -1.121094 1.558594 -0.921875 1.878906 -0.679688 C 2.199219 -0.441406 2.480469 -0.28125 2.800781 -0.238281 C 4.121094 0 5.398438 0.078125 6.679688 0.078125 C 7.359375 0.078125 8.597656 -0.121094 10.398438 -0.601562 C 12.199219 -1.078125 13.480469 -1.601562 14.199219 -2.199219 C 14.320312 -2.28125 14.558594 -2.480469 14.917969 -2.800781 C 15.277344 -3.121094 15.519531 -3.320312 15.640625 -3.398438 C 15.71875 -3.480469 15.917969 -3.679688 16.160156 -3.960938 C 16.398438 -4.238281 16.558594 -4.480469 16.640625 -4.71875 C 16.71875 -4.960938 16.839844 -5.238281 16.957031 -5.601562 C 17.078125 -5.960938 17.160156 -6.359375 17.238281 -6.800781 C 17.238281 -6.878906 17.238281 -7.039062 17.277344 -7.238281 C 17.277344 -7.441406 17.320312 -7.640625 17.320312 -7.800781 C 17.320312 -7.960938 17.359375 -8.078125 17.359375 -8.238281 C 17.359375 -9.640625 17 -10.960938 16.277344 -12.199219 C 15.878906 -12.679688 14.878906 -13.480469 13.277344 -14.640625 Z M 13.277344 -14.640625 "/></g></g></g><g fill="#050a30" fill-opacity="1"><g transform="translate(114.177278, 250.548147)"><g><path d="M 0.761719 -26.160156 L 0.679688 -24.398438 L 1.078125 -17.839844 C 1.078125 -17.558594 1.160156 -17.160156 1.238281 -16.679688 C 1.320312 -16.160156 1.359375 -15.800781 1.398438 -15.558594 L 1.398438 -1.199219 C 1.398438 -1 1.398438 -0.800781 1.480469 -0.640625 C 1.519531 -0.441406 1.601562 -0.320312 1.71875 -0.320312 L 2 0.0390625 L 2.078125 0.238281 C 2.121094 0.320312 2.160156 0.398438 2.160156 0.398438 L 2.199219 0.480469 C 2.28125 0.558594 2.441406 0.601562 2.679688 0.601562 C 2.917969 0.601562 3.121094 0.601562 3.238281 0.558594 C 3.238281 0.558594 3.28125 0.519531 3.359375 0.519531 L 3.441406 0.558594 L 3.558594 0.558594 C 3.640625 0.601562 3.839844 0.601562 4.160156 0.601562 C 4.320312 0.601562 4.441406 0.558594 4.558594 0.480469 L 4.558594 0.519531 C 4.679688 0.441406 5.121094 0.359375 5.878906 0.28125 C 6.039062 0.238281 6.160156 0 6.28125 -0.480469 L 6.28125 -11.480469 L 9.4375 -11.480469 L 12.359375 -11.71875 L 12.640625 -11.199219 C 12.679688 -10 12.757812 -8.28125 12.917969 -6.039062 C 13.039062 -3.757812 13.121094 -2.078125 13.199219 -0.960938 L 13.199219 -0.761719 C 13.199219 -0.441406 13.277344 -0.28125 13.4375 -0.28125 C 13.519531 -0.199219 13.679688 0 13.839844 0.320312 L 15.117188 0.441406 L 15.359375 0.441406 L 15.679688 0.359375 C 15.757812 0.359375 15.839844 0.320312 15.917969 0.320312 L 16.039062 0.28125 L 16.957031 0.078125 C 17.199219 0.078125 17.398438 -0.320312 17.597656 -1.121094 L 17.597656 -14.039062 L 18.078125 -17.277344 L 17.71875 -26.277344 L 17.359375 -27.398438 L 16.597656 -28.039062 L 15.238281 -28.117188 L 14.320312 -28.039062 L 13.4375 -28.039062 C 13.238281 -28.039062 12.878906 -27.796875 12.359375 -27.316406 L 12.71875 -25.039062 L 12.71875 -18.4375 L 12.878906 -16.199219 C 12.800781 -16.160156 12.71875 -16.078125 12.597656 -15.960938 L 11.199219 -15.878906 L 6.160156 -15.878906 L 6.039062 -16.277344 L 6.039062 -18.597656 L 6.160156 -20.398438 L 6.160156 -24.636719 C 6.160156 -24.957031 6 -25.320312 5.757812 -25.796875 C 5.519531 -26.238281 5.320312 -26.519531 5.160156 -26.597656 L 5.28125 -26.597656 C 5.199219 -26.636719 5.078125 -26.679688 4.878906 -26.679688 L 4.679688 -26.679688 C 4.601562 -26.679688 4.558594 -26.636719 4.519531 -26.636719 C 4.480469 -26.636719 4.441406 -26.636719 4.441406 -26.636719 L 4.398438 -26.636719 L 2.398438 -27.277344 C 2.238281 -27.277344 2 -27.117188 1.71875 -26.839844 Z M 0.761719 -26.160156 "/></g></g></g><g fill="#050a30" fill-opacity="1"><g transform="translate(133.335372, 250.548147)"><g><path d="M 17.160156 -24.199219 C 16.757812 -24.796875 16 -25.558594 14.960938 -26.519531 C 13.917969 -27.4375 13 -27.917969 12.238281 -28 C 11.359375 -28.078125 10.519531 -28.160156 9.800781 -28.316406 L 7.839844 -28.316406 L 5.640625 -27.558594 L 5.28125 -27.039062 C 5 -26.71875 4.640625 -26.199219 4.238281 -25.558594 C 3.800781 -24.917969 3.398438 -24.277344 3.078125 -23.636719 C 1.839844 -21.359375 1.160156 -19.71875 1.078125 -18.679688 C 1.078125 -18.398438 0.960938 -17.558594 0.800781 -16.117188 C 0.800781 -16.078125 0.761719 -16.039062 0.761719 -15.960938 C 0.761719 -15.878906 0.761719 -15.800781 0.761719 -15.800781 C 0.71875 -15.71875 0.71875 -15.597656 0.71875 -15.398438 C 0.480469 -13.398438 0.398438 -11.839844 0.398438 -10.71875 L 0.398438 -10.28125 C 0.480469 -9.121094 0.71875 -7.839844 1.121094 -6.398438 C 1.519531 -4.960938 1.878906 -4 2.28125 -3.519531 C 2.558594 -3.039062 3.28125 -2.480469 4.398438 -1.878906 C 5.519531 -1.238281 6.441406 -0.878906 7.078125 -0.800781 C 7.839844 -0.558594 8.71875 -0.441406 9.679688 -0.441406 C 10.960938 -0.441406 12.199219 -0.761719 13.398438 -1.398438 C 14.597656 -2.039062 15.480469 -3.039062 16.117188 -4.480469 C 16.917969 -6.640625 17.558594 -8.839844 18.039062 -11.078125 C 18.480469 -13.320312 18.71875 -14.878906 18.71875 -15.839844 C 18.71875 -16.597656 18.519531 -18.117188 18.117188 -20.359375 C 17.71875 -22.597656 17.398438 -23.878906 17.160156 -24.199219 Z M 13.960938 -16.078125 C 13.878906 -15.640625 13.800781 -15.078125 13.800781 -14.398438 C 13.71875 -12.878906 13.480469 -11.277344 13.039062 -9.640625 L 13.039062 -9.679688 C 12.558594 -8.359375 11.839844 -7.121094 10.960938 -6 C 10.078125 -4.839844 9.398438 -4.238281 8.917969 -4.160156 L 8.960938 -4.160156 C 8.519531 -4.160156 8 -4.359375 7.441406 -4.679688 C 6.878906 -5 6.441406 -5.320312 6.160156 -5.601562 L 5.878906 -6.878906 C 5.679688 -7.757812 5.480469 -8.71875 5.320312 -9.800781 C 5.121094 -10.839844 5 -11.597656 5 -12 L 5 -12.800781 C 5 -16.039062 5.359375 -19.117188 6.121094 -22.039062 C 6.28125 -22.597656 6.519531 -23.039062 6.917969 -23.4375 C 7.28125 -23.839844 7.640625 -24.117188 8 -24.277344 C 8.359375 -24.4375 8.757812 -24.597656 9.238281 -24.679688 C 9.679688 -24.757812 10 -24.796875 10.160156 -24.796875 L 10.558594 -24.796875 L 10.960938 -24.558594 C 11.199219 -24.398438 11.519531 -24.117188 11.878906 -23.757812 C 12.238281 -23.398438 12.519531 -23 12.679688 -22.597656 C 12.960938 -21.839844 13.238281 -20.757812 13.519531 -19.398438 C 13.757812 -18.039062 13.917969 -16.917969 13.960938 -16.078125 Z M 13.960938 -16.078125 "/></g></g></g><g fill="#050a30" fill-opacity="1"><g transform="translate(152.813433, 250.548147)"><g/></g></g><g fill="#050a30" fill-opacity="1"><g transform="translate(162.092508, 250.548147)"><g><path d="M 1.800781 -15.679688 L 1.078125 -13.71875 L 1.320312 -12.757812 L 3.078125 -11.878906 L 13.4375 -11.878906 L 14.199219 -13.4375 L 13.800781 -15.679688 Z M 1.800781 -15.679688 "/></g></g></g><g fill="#050a30" fill-opacity="1"><g transform="translate(178.330895, 250.548147)"><g/></g></g><g fill="#050a30" fill-opacity="1"><g transform="translate(187.60997, 250.548147)"><g><path d="M 5.398438 -23.597656 L 8.839844 -23.636719 L 14.878906 -23.078125 L 16.359375 -23.480469 L 16.640625 -24.359375 L 16.398438 -27 L 15.039062 -27.796875 L 9.480469 -27.957031 L 9.121094 -27.957031 C 8.878906 -27.957031 8.359375 -27.957031 7.597656 -27.957031 C 6.839844 -27.957031 6.320312 -28 6.078125 -28 L 3.71875 -28.199219 L 2.078125 -27.957031 L 1.398438 -27.117188 L 1.238281 -26 L 1.238281 -1.078125 L 2.320312 -0.238281 L 3.71875 0.078125 L 7.160156 0.078125 L 11.917969 -0.238281 L 14.597656 -0.839844 L 15.039062 -2.160156 L 14.597656 -3.757812 L 14.160156 -3.917969 C 13.839844 -4 13.4375 -4.121094 12.960938 -4.238281 C 12.480469 -4.320312 12.039062 -4.398438 11.71875 -4.398438 C 11 -4.359375 9.320312 -4.199219 6.597656 -3.960938 C 5.878906 -3.878906 5.441406 -3.839844 5.359375 -3.839844 L 5.359375 -3.960938 C 5.359375 -4.039062 5.320312 -4.320312 5.320312 -4.71875 C 5.320312 -5.121094 5.320312 -5.480469 5.320312 -5.71875 L 5.320312 -7.320312 C 5.320312 -7.558594 5.320312 -8 5.320312 -8.71875 C 5.320312 -9.398438 5.359375 -9.878906 5.359375 -10.121094 C 5.359375 -10.679688 5.398438 -11.558594 5.398438 -12.757812 L 8.917969 -12.757812 L 9.558594 -12.640625 L 10.800781 -12.71875 L 12.121094 -12.640625 L 13.320312 -12.640625 L 14.117188 -12.71875 L 14.640625 -12.878906 L 15.398438 -13.277344 L 15.679688 -14.160156 C 15.679688 -14.359375 15.597656 -14.519531 15.480469 -14.597656 L 15.519531 -14.597656 L 15.519531 -15.359375 L 15.398438 -16.277344 L 14.558594 -17 L 13.199219 -17.160156 L 11.480469 -17.160156 L 8.878906 -17 L 5.480469 -17 C 5.480469 -17.398438 5.441406 -17.917969 5.441406 -18.640625 C 5.441406 -19.359375 5.441406 -19.878906 5.441406 -20.277344 C 5.398438 -20.957031 5.398438 -22.078125 5.398438 -23.597656 Z M 5.398438 -23.597656 "/></g></g></g><g fill="#050a30" fill-opacity="1"><g transform="translate(205.528189, 250.548147)"><g><path d="M 21.519531 -1.558594 L 20.277344 -5.640625 C 20 -6.359375 19.558594 -7.480469 19 -9 C 18.398438 -10.519531 17.957031 -11.640625 17.71875 -12.398438 L 15.519531 -18.277344 L 12.597656 -23.839844 L 12.640625 -23.839844 L 12.320312 -24.71875 C 12.078125 -25.277344 11.800781 -25.878906 11.519531 -26.597656 C 11.199219 -27.277344 11 -27.757812 10.839844 -28.039062 C 10.4375 -28.519531 9.839844 -28.796875 9.039062 -28.796875 C 8.480469 -28.796875 8 -28.71875 7.597656 -28.636719 C 6.800781 -28.398438 6.441406 -28 6.441406 -27.398438 L 6.441406 -27.160156 L 6.597656 -26.757812 L 6.878906 -26.160156 L 6.078125 -23.398438 L 6.078125 -23.4375 L 3.917969 -17.238281 L 2.359375 -11.238281 L 2.359375 -11.277344 L -0.28125 -3.238281 L -0.28125 -1.839844 L -0.359375 -1.398438 L -0.480469 -0.679688 C -0.480469 -0.359375 -0.480469 0 -0.398438 0.398438 C -0.398438 0.480469 -0.320312 0.71875 -0.160156 1.039062 L 1.121094 1.039062 C 1.199219 1.039062 1.359375 1.039062 1.601562 1 L 2.441406 0.601562 L 3 0 L 3.359375 -2.121094 L 3.359375 -2.078125 L 4.359375 -4.960938 L 5.160156 -7.039062 L 5.398438 -7.679688 L 6.679688 -7.679688 L 13.277344 -8.199219 L 13.800781 -7.839844 L 16.679688 -0.878906 L 17.398438 0.078125 L 17.878906 0.320312 L 18.4375 0.320312 L 20.277344 -0.0390625 L 21.078125 -0.398438 Z M 12 -12.199219 L 11.800781 -12.039062 L 11.839844 -12.078125 L 10.757812 -11.757812 L 8.398438 -11.679688 L 6.398438 -11.4375 L 6.320312 -11.558594 C 6.320312 -11.679688 6.398438 -11.878906 6.480469 -12.121094 C 6.558594 -12.359375 6.597656 -12.558594 6.640625 -12.679688 L 7.597656 -15.878906 L 7.597656 -15.839844 L 9.160156 -20.160156 C 9.160156 -20.078125 9.199219 -20 9.28125 -19.957031 L 10.558594 -16.640625 L 10.558594 -16.679688 L 11.640625 -13.078125 Z M 12 -12.199219 "/></g></g></g><g fill="#050a30" fill-opacity="1"><g transform="translate(225.92616, 250.548147)"><g><path d="M 6.398438 -19.757812 L 6.398438 -19.957031 C 6.558594 -20.277344 6.800781 -20.71875 7.160156 -21.199219 C 7.519531 -21.679688 7.839844 -21.957031 8.078125 -22.039062 C 8.28125 -22.078125 8.71875 -22.160156 9.359375 -22.320312 C 10 -22.4375 10.4375 -22.519531 10.640625 -22.597656 L 11.757812 -22.878906 L 13.199219 -22.679688 L 14.4375 -22.597656 L 15.078125 -23.199219 L 15.117188 -24.558594 L 15 -25.476562 L 15.160156 -26.117188 L 14.878906 -27 C 14.480469 -27.160156 14 -27.316406 13.4375 -27.558594 L 10.4375 -27.71875 C 8.917969 -27.71875 7.839844 -27.519531 7.238281 -27.160156 L 7.28125 -27.160156 C 6.800781 -26.917969 6.28125 -26.597656 5.71875 -26.199219 C 5.160156 -25.796875 4.480469 -25.320312 3.757812 -24.71875 C 3.039062 -24.078125 2.441406 -23.359375 1.960938 -22.558594 C 1.480469 -21.757812 1.238281 -20.957031 1.238281 -20.160156 C 1.238281 -19.839844 1.238281 -19.640625 1.28125 -19.558594 L 1.28125 -19.597656 C 1.558594 -17.359375 2.199219 -15.757812 3.199219 -14.800781 L 6.960938 -10.839844 L 7.28125 -10.480469 C 7.519531 -10.238281 7.71875 -9.878906 7.960938 -9.4375 C 8.199219 -8.960938 8.320312 -8.519531 8.320312 -8.121094 L 8.320312 -7.917969 C 8.238281 -7.121094 8.039062 -6.519531 7.800781 -6.039062 C 7.558594 -5.558594 7.28125 -5.28125 6.960938 -5.28125 C 5.839844 -5.160156 5 -5 4.359375 -4.839844 L 2.71875 -4.558594 L 2.558594 -4.320312 C 2.480469 -4.160156 2.359375 -4 2.28125 -3.800781 C 2.160156 -3.558594 2.078125 -3.398438 2.078125 -3.28125 C 2.078125 -2.71875 2.398438 -1.761719 3.078125 -0.441406 C 3.078125 -0.28125 3.199219 -0.121094 3.441406 0.078125 L 7.800781 -0.558594 L 9.121094 -1.121094 C 9.960938 -1.519531 10.839844 -2.121094 11.800781 -2.917969 C 12.757812 -3.71875 13.320312 -4.558594 13.480469 -5.441406 C 13.640625 -6.480469 13.757812 -7.359375 13.757812 -8.121094 C 13.757812 -9.078125 13.480469 -9.960938 12.917969 -10.839844 C 12.359375 -11.597656 10.878906 -13.597656 8.398438 -16.839844 L 7.238281 -18.078125 L 7.039062 -18.320312 C 6.878906 -18.4375 6.71875 -18.640625 6.597656 -18.917969 C 6.441406 -19.199219 6.398438 -19.480469 6.398438 -19.757812 Z M 6.359375 -19.878906 L 6.398438 -19.957031 Z M 6.359375 -19.878906 "/></g></g></g><g fill="#050a30" fill-opacity="1"><g transform="translate(240.404721, 250.548147)"><g><path d="M 2.480469 -26.519531 L 2.078125 -26.316406 L 1.199219 -25.597656 C 0.71875 -25.320312 0.480469 -24.796875 0.480469 -24.039062 C 0.480469 -23.839844 0.480469 -23.597656 0.519531 -23.277344 C 0.558594 -22.957031 0.601562 -22.796875 0.601562 -22.71875 C 1.320312 -21.519531 2.359375 -19.71875 3.800781 -17.320312 C 5.238281 -14.878906 6.320312 -13.078125 7.039062 -11.917969 L 7.039062 -10.878906 L 7.199219 -9 C 7.199219 -8.519531 7.121094 -6.238281 7 -2.078125 L 7.238281 -1.121094 L 7.640625 -0.839844 C 7.878906 -0.640625 8.199219 -0.441406 8.558594 -0.28125 C 8.878906 -0.078125 9.160156 0 9.320312 0 C 9.480469 0 9.839844 -0.0390625 10.359375 -0.199219 C 10.878906 -0.359375 11.199219 -0.480469 11.277344 -0.558594 C 11.597656 -0.800781 11.839844 -1.519531 12.078125 -2.640625 L 11.917969 -8.917969 L 11.917969 -9.160156 C 11.917969 -9.28125 11.960938 -9.640625 11.960938 -10.28125 L 11.960938 -10.839844 C 11.960938 -10.878906 11.960938 -10.917969 12 -11 L 12.078125 -11.160156 L 12.121094 -11.238281 L 13.121094 -12.160156 L 18.480469 -22.957031 L 18.640625 -24.519531 C 18.640625 -24.679688 18.597656 -24.839844 18.597656 -24.957031 C 18.277344 -25.4375 17.640625 -25.796875 16.597656 -26.039062 C 15.960938 -26.238281 15.480469 -26.359375 15.160156 -26.359375 C 14.71875 -26.238281 14.238281 -25.679688 13.71875 -24.636719 C 13.160156 -23.597656 12.757812 -22.636719 12.519531 -21.757812 L 12.320312 -21.359375 C 12 -20.558594 11.160156 -18.679688 9.757812 -15.71875 L 9.078125 -17.839844 C 8.71875 -18 8.480469 -18.160156 8.359375 -18.320312 L 8.199219 -18.398438 L 5.121094 -24.160156 L 4.71875 -25.839844 C 4.519531 -26.398438 4.078125 -26.679688 3.398438 -26.679688 C 3.078125 -26.679688 2.761719 -26.597656 2.480469 -26.519531 Z M 2.480469 -26.519531 "/></g></g></g><g fill="#050a30" fill-opacity="1"><g transform="translate(259.122859, 250.548147)"><g><path d="M 4.359375 -27.398438 L 3.640625 -14.359375 L 3.28125 -7.71875 L 4.160156 -6.359375 L 7.480469 -6.800781 L 8.078125 -7.558594 L 8.238281 -8.960938 L 8.238281 -13.640625 L 8.398438 -15.277344 L 8.398438 -17.480469 L 8.839844 -21.71875 L 8.960938 -27.039062 C 8.960938 -27.359375 8.320312 -27.679688 7.078125 -27.917969 L 6.039062 -28.160156 C 5.71875 -28.199219 5.519531 -28.238281 5.441406 -28.238281 C 5.160156 -28.238281 4.917969 -28.160156 4.757812 -28 C 4.558594 -27.839844 4.441406 -27.71875 4.398438 -27.636719 C 4.359375 -27.519531 4.359375 -27.4375 4.359375 -27.398438 Z M 5.121094 -4.878906 L 4.800781 -4.800781 C 4.558594 -4.71875 4.320312 -4.601562 4.039062 -4.441406 C 3.757812 -4.28125 3.558594 -4.160156 3.480469 -4 C 3.398438 -3.917969 3.320312 -3.757812 3.160156 -3.558594 C 3 -3.320312 2.878906 -3.160156 2.800781 -3.039062 C 2.71875 -2.917969 2.640625 -2.761719 2.558594 -2.519531 C 2.480469 -2.28125 2.441406 -2.078125 2.441406 -1.839844 C 2.441406 -1.320312 2.640625 -0.800781 3.078125 -0.28125 C 3.519531 0.28125 4 0.601562 4.558594 0.679688 C 4.601562 0.679688 4.679688 0.71875 4.757812 0.71875 C 4.839844 0.71875 4.878906 0.71875 4.960938 0.71875 C 5.441406 0.71875 5.960938 0.601562 6.597656 0.359375 C 7.199219 0.121094 7.597656 -0.121094 7.757812 -0.359375 C 8 -0.679688 8.160156 -1.160156 8.160156 -1.761719 C 8.160156 -1.917969 8.121094 -2.199219 8.078125 -2.601562 C 8 -3.757812 7.558594 -4.398438 6.757812 -4.480469 C 6.519531 -4.519531 6.359375 -4.558594 6.238281 -4.640625 C 6.078125 -4.679688 6 -4.71875 6 -4.800781 L 5.960938 -4.839844 C 5.839844 -4.839844 5.558594 -4.839844 5.121094 -4.878906 Z M 5.121094 -4.878906 "/></g></g></g><g fill="#050a30" fill-opacity="1"><g transform="translate(271.031237, 250.548147)"><g/></g></g></svg>